<svg viewBox="0 0 151 63" fill="none" xmlns="http://www.w3.org/2000/svg" xmlns:anim="http://www.w3.org/2000/anim" anim:transform-origin="50% 50%" anim:duration=".5" anim:ease="power1.inOut"><g clip-path="url(#clip0_2_565)"><g clip-path="url(#clip1_2_565)"><path d="M52.887 22.989c-.116 3.638 1.717 5.249 1.763 6.272a1.304 1.304 0 01-.664 1.007l-2.074 1.44a1.735 1.735 0 01-.912.308c-.07-.004-1.327.294-3.318-4.114a12.717 12.717 0 01-4.518 3.531 12.826 12.826 0 01-5.624 1.2c-2.637.142-9.784-1.485-9.417-9.03-.257-6.148 5.518-9.967 11.49-9.645 1.15.004 3.5.06 7.613 1.008v-2.51c.435-4.25-2.382-7.547-7.26-7.052-.388.001-3.142-.08-7.425 1.624-1.192.543-1.345.453-1.742.453-1.2 0-.706-3.45-.476-3.887.844-1.028 5.81-2.948 10.682-2.92a12.522 12.522 0 019.021 2.775 11.266 11.266 0 012.3 3.915 11.2 11.2 0 01.563 4.495l-.002 11.13zm-14 5.202c5.254-.075 7.478-3.207 7.985-4.894.399-1.614.333-2.636.333-4.4-1.567-.374-3.822-.78-6.409-.783-2.454-.183-6.937.904-6.762 5.181-.2 2.697 1.802 5.044 4.854 4.896zm27.689 3.703c-1.274.115-1.866-.781-2.054-1.666L56.454 3.782a6.092 6.092 0 01-.31-1.379.736.736 0 01.136-.55.748.748 0 01.489-.293c.038-.006-.345 0 3.604 0 1.422-.141 1.886.969 2.033 1.666l5.786 22.62 5.372-22.62c.086-.517.476-1.778 2.074-1.645h2.78c.351-.029 1.8-.08 2.053 1.666l5.414 22.91 5.973-22.91c.078-.35.44-1.827 2.054-1.666h3.195c.137-.02.996-.13.85 1.378-.07.297.553-1.712-8.545 27.29-.186.885-.78 1.781-2.054 1.665H84.33c-1.772.185-2.026-1.551-2.054-1.726L76.904 8.162l-5.31 22.003c-.026.175-.28 1.912-2.054 1.727h-2.964v.002zm44.302.904c-.953.002-5.495-.048-9.292-1.974a2.071 2.071 0 01-.926-.766 2.044 2.044 0 01-.339-1.147v-1.727c0-1.357 1.004-1.108 1.43-.946 1.626.652 2.67 1.147 4.667 1.542 5.937 1.21 8.548-.37 9.188-.72 2.131-1.254 2.299-4.124.851-5.613-1.698-1.412-2.508-1.465-8.607-3.373-.752-.208-7.079-2.186-7.094-8.41-.098-4.536 4.058-9.024 11.262-8.987 2.053-.002 7.522.663 9.002 2.509.219.335.327.73.311 1.13V5.94c0 .713-.262 1.07-.789 1.07-1.249-.138-3.465-1.794-7.963-1.727-1.116-.057-6.462.147-6.222 4.011-.07 3.045 4.31 4.188 4.811 4.32 5.906 1.761 7.881 2.054 10.225 4.75 2.776 3.574 1.28 7.758.704 8.905-3.09 6.022-11.083 5.532-11.219 5.529zm6.512 16.843C106.045 57.948 89.577 62.37 75.516 62.37c-18.973.124-37.306-6.793-51.396-19.392-1.057-.946-.124-2.242 1.162-1.521a103.933 103.933 0 0051.333 13.511 102.848 102.848 0 0039.136-7.958c1.908-.803 3.526 1.253 1.639 2.63zm4.729-5.347c-1.452-1.85-9.603-.865-13.253-.432-1.1.123-1.286-.823-.29-1.522 6.491-4.524 17.152-3.228 18.376-1.707 1.223 1.521-.332 12.112-6.408 17.172-.933.782-1.826.37-1.411-.658 1.367-3.414 4.437-11.002 2.986-12.853z" fill="#737373"/></g></g><defs><clipPath id="clip0_2_565"><path fill="#fff" transform="translate(0 .5)" d="M0 0h151v62H0z"/></clipPath><clipPath id="clip1_2_565"><path fill="#fff" transform="translate(23.5 .5)" d="M0 0h104v62H0z"/></clipPath></defs></svg>