<svg viewBox="0 0 17 16" fill="none" xmlns="http://www.w3.org/2000/svg" xmlns:anim="http://www.w3.org/2000/anim" anim:transform-origin="50% 50%" anim:duration=".5" anim:ease="power1.inOut"><g clip-path="url(#clip0_2_388)" fill="#737373"><path d="M1 9.9a.5.5 0 01.5.5v2.5a1 1 0 001 1h12a1 1 0 001-1v-2.5a.5.5 0 011 0v2.5a2 2 0 01-2 2h-12a2 2 0 01-2-2v-2.5a.5.5 0 01.5-.5z"/><path d="M8.146 11.854a.5.5 0 00.708 0l3-3a.5.5 0 00-.708-.708L9 10.293V1.5a.5.5 0 10-1 0v8.793L5.854 8.146a.5.5 0 10-.708.708l3 3z"/></g><defs><clipPath id="clip0_2_388"><path fill="#fff" transform="translate(.5)" d="M0 0h16v16H0z"/></clipPath></defs></svg>