<svg viewBox="0 0 23 23" fill="none" xmlns="http://www.w3.org/2000/svg" xmlns:anim="http://www.w3.org/2000/anim" anim:transform-origin="50% 50%" anim:duration=".5" anim:ease="power1.inOut"><path d="M17.848 12.352a1.2 1.2 0 00-1.697 0l-1.912 1.912c-.887-.263-2.542-.864-3.59-1.912-1.05-1.05-1.65-2.704-1.914-3.59l1.913-1.913a1.198 1.198 0 000-1.697l-4.8-4.8a1.199 1.199 0 00-1.697 0L.897 3.606a2.398 2.398 0 00-.703 1.722C.22 7.037.674 12.972 5.35 17.65c4.678 4.677 10.613 5.128 12.323 5.157h.034c.633 0 1.232-.25 1.686-.703l3.254-3.254a1.197 1.197 0 000-1.697l-4.8-4.801zm-.152 8.054c-1.498-.025-6.622-.427-10.648-4.454-4.039-4.04-4.43-9.181-4.454-10.649L5 2.897 8.103 6 6.551 7.552a1.2 1.2 0 00-.326 1.094c.029.138.733 3.41 2.725 5.402 1.992 1.993 5.264 2.697 5.402 2.726a1.19 1.19 0 001.095-.326L17 14.897 20.103 18l-2.407 2.406z" fill="#fff"/></svg>