<svg viewBox="0 0 24 21" fill="none" xmlns="http://www.w3.org/2000/svg" xmlns:anim="http://www.w3.org/2000/anim" anim:transform-origin="50% 50%" anim:duration=".5" anim:ease="power1.inOut"><path fill-rule="evenodd" clip-rule="evenodd" d="M-.919 2.717A3.345 3.345 0 01.223.853 3.2 3.2 0 012.25.125h19.5a3.2 3.2 0 012.026.728c.576.47.979 1.128 1.143 1.864L12 10.815-.919 2.717zM-1 4.62v11.84l9.43-5.93L-1 4.62zm10.987 6.89L-.69 18.22a3.32 3.32 0 001.2 1.39 3.19 3.19 0 001.74.514h19.5c.616 0 1.218-.178 1.738-.516s.937-.82 1.2-1.39l-10.676-6.712L12 12.77l-2.013-1.262v.002zm5.583-.977L25 16.46V4.62l-9.43 5.91v.002z" fill="#fff"/></svg>