<svg viewBox="0 0 49 48" fill="none" xmlns="http://www.w3.org/2000/svg" xmlns:anim="http://www.w3.org/2000/anim" anim:transform-origin="50% 50%" anim:duration=".5" anim:ease="power1.inOut"><g clip-path="url(#clip0_2_207)"><path d="M24.5 4.5V6h-18V4.5a3 3 0 013-3h12a3 3 0 013 3zm0 19.5v3a3 3 0 01-3 3h-12a3 3 0 01-3-3v-3h18z" fill="#AAB2BD"/><path d="M24.5 17.25V24h-18V6h18v11.25z" fill="#69D6F4"/><path d="M21.5 21h-12c0-3.315 2.685-6 6-6a6.01 6.01 0 014.245 1.755A6.01 6.01 0 0121.5 21z" fill="#E6E9ED"/><path d="M15.5 15a3 3 0 100-6 3 3 0 000 6z" fill="#F0D0B4"/><path d="M41.697 1.5a5.29 5.29 0 00-3.75 1.553l-.697.697-.697-.697A5.306 5.306 0 0027.5 6.75v.54c0 1.56.69 3.038 1.875 4.05L37.25 18l7.875-6.66a5.3 5.3 0 001.867-3.84C47 7.433 47 7.357 47 7.29v-.487A5.307 5.307 0 0041.697 1.5z" fill="#FF826E"/><path d="M42.5 26.25a5.254 5.254 0 01-3.75 5.032V30c0-.413-.165-.788-.443-1.058a1.466 1.466 0 00-1.057-.442c-.825 0-1.5.675-1.5 1.5v1.275h-.03A5.264 5.264 0 0132 26.25 5.246 5.246 0 0137.25 21a5.246 5.246 0 015.25 5.25z" fill="#FFEAA7"/><g clip-path="url(#clip1_2_207)" fill="#FCD770"><path d="M38.75 31.282V34.5h-3V30c0-.825.675-1.5 1.5-1.5.413 0 .788.165 1.057.442.278.27.443.645.443 1.058v1.282zM29 15.75v1.5h-4.5v-3H29v1.5zm-22.5-1.5v3H2v-3h4.5z"/></g><path d="M22.25 21.75V21c0-2.826-1.747-5.248-4.217-6.253A3.729 3.729 0 0019.25 12a3.754 3.754 0 00-3.75-3.75A3.754 3.754 0 0011.75 12c0 1.088.474 2.062 1.217 2.747C10.497 15.752 8.75 18.174 8.75 21v.75h13.5zm-9-9.75c0-1.24 1.01-2.25 2.25-2.25s2.25 1.01 2.25 2.25-1.01 2.25-2.25 2.25-2.25-1.01-2.25-2.25zm2.25 3.75a5.258 5.258 0 015.197 4.5H10.303a5.258 5.258 0 015.197-4.5zm-3 10.5h6v1.5h-6v-1.5zM41.697.75c-1.617 0-3.138.63-4.28 1.773l-.167.166-.166-.166A6.014 6.014 0 0032.803.75a6.06 6.06 0 00-6.054 6.053v.487c0 1.783.782 3.468 2.143 4.62l8.357 7.073 8.356-7.072a6.044 6.044 0 002.144-4.62v-.488A6.06 6.06 0 0041.697.75zm-8.894 1.5c1.216 0 2.36.474 3.22 1.333l1.227 1.228 1.227-1.228a4.526 4.526 0 013.22-1.333 4.557 4.557 0 014.55 4.5H40.46l-1.099 3.296-1.983-3.966-2.308 3.078L33.175 6h-4.85a4.559 4.559 0 014.478-3.75zm11.835 8.515l-7.388 6.252-7.388-6.252a4.54 4.54 0 01-1.6-3.265h4.063l2.605 4.342 2.192-2.921 2.517 5.034L41.54 8.25h4.606a4.547 4.547 0 01-1.509 2.515z" fill="#000"/><path d="M37.25 20.25c-3.308 0-6 2.692-6 6A5.951 5.951 0 0035 31.793v3.457h1.5v7.5c0 1.654-1.346 3-3 3s-3-1.346-3-3v-1.5c0-2.482-2.018-4.5-4.5-4.5a4.504 4.504 0 00-4.5 4.5v1.875a2.628 2.628 0 01-2.625 2.625 2.628 2.628 0 01-2.625-2.625v-5.663c7.508-.394 13.5-6.608 13.5-14.212V13.5h-4.5v-9A3.754 3.754 0 0021.5.75h-12A3.754 3.754 0 005.75 4.5v9h-4.5v9.75c0 7.604 5.992 13.818 13.5 14.212v5.663a4.13 4.13 0 004.125 4.125A4.13 4.13 0 0023 43.125V41.25c0-1.654 1.346-3 3-3s3 1.346 3 3v1.5c0 2.482 2.018 4.5 4.5 4.5s4.5-2.018 4.5-4.5v-7.5h1.5v-3.458c2.229-.91 3.75-3.1 3.75-5.542 0-3.308-2.692-6-6-6zm-9-5.25v1.5h-3V15h3zm-21 9.75h16.5V27c0 1.24-1.01 2.25-2.25 2.25h-12c-1.24 0-2.25-1.01-2.25-2.25v-2.25zm16.5-1.5H7.25V6.75h16.5v16.5zM9.5 2.25h12c1.24 0 2.25 1.01 2.25 2.25v.75H7.25V4.5c0-1.24 1.01-2.25 2.25-2.25zM2.75 15h3v1.5h-3V15zm0 8.25V18h3v9a3.754 3.754 0 003.75 3.75h12A3.754 3.754 0 0025.25 27v-9h3v5.25C28.25 30.28 22.53 36 15.5 36S2.75 30.28 2.75 23.25zM38 33.75h-1.5V30a.75.75 0 011.5 0v3.75zm1.5-3.62V30c0-1.24-1.01-2.25-2.25-2.25S35 28.76 35 30v.135a4.464 4.464 0 01-2.25-3.885c0-2.482 2.018-4.5 4.5-4.5s4.5 2.018 4.5 4.5c0 1.617-.892 3.086-2.25 3.88z" fill="#000"/></g><defs><clipPath id="clip0_2_207"><path fill="#fff" transform="translate(.5)" d="M0 0h48v48H0z"/></clipPath><clipPath id="clip1_2_207"><path fill="#fff" transform="translate(2 14.25)" d="M0 0h36.75v20.25H0z"/></clipPath></defs></svg>