<svg viewBox="0 0 48 48" fill="none" xmlns="http://www.w3.org/2000/svg" xmlns:anim="http://www.w3.org/2000/anim" anim:transform-origin="50% 50%" anim:duration=".5" anim:ease="power1.inOut"><g clip-path="url(#clip0_2_229)"><path d="M36 31.2v10.4a2.4 2.4 0 01-2.4 2.4H14.4a2.4 2.4 0 01-2.4-2.4V6.4A2.4 2.4 0 0114.4 4h19.2A2.4 2.4 0 0136 6.4v24.8z" fill="#fff"/><path d="M36 10.4H12v27.2h24V10.4z" fill="#29ABE2"/><path d="M4 27.2h8.8l4.8 3.2v-3.2H20a1.6 1.6 0 001.6-1.6V16a1.6 1.6 0 00-1.6-1.6H4A1.6 1.6 0 002.4 16v9.6A1.6 1.6 0 004 27.2z" fill="#fff"/><path d="M44 31.2h-8.8l-4.8 3.2v-3.2H28a1.6 1.6 0 01-1.6-1.6V18.4a1.6 1.6 0 011.6-1.6h16a1.6 1.6 0 011.6 1.6v11.2a1.6 1.6 0 01-1.6 1.6z" fill="#E6E6E6"/><path d="M32 22.4h2.4V20h3.2v2.4H40v3.2h-2.4V28h-3.2v-2.4H32v-3.2z" fill="#fff"/><path d="M8.8 16.8H7.2v1.6h1.6v-1.6zm9.6 0h-8v1.6h8v-1.6zm0 3.2H5.6v1.6h12.8V20zm-3.2 3.2H5.6v1.6h9.6v-1.6zM24.8 40h-1.6v1.6h1.6V40zm1.6-33.6h-1.6V8h1.6V6.4zm-3.2 0h-1.6V8h1.6V6.4z" fill="#000"/><path d="M11.2 6.4v7.2H4A2.4 2.4 0 001.6 16v9.6A2.4 2.4 0 004 28h7.2v13.6a3.2 3.2 0 003.2 3.2h19.2a3.2 3.2 0 003.2-3.2V32H44a2.4 2.4 0 002.4-2.4V18.4A2.4 2.4 0 0044 16h-7.2V6.4a3.2 3.2 0 00-3.2-3.2H14.4a3.2 3.2 0 00-3.2 3.2zm-8 19.2V16a.8.8 0 01.8-.8h16a.8.8 0 01.8.8v9.6a.8.8 0 01-.8.8h-2.4a.8.8 0 00-.8.8v1.705l-3.556-2.37a.806.806 0 00-.444-.135H4a.8.8 0 01-.8-.8zm30.4 17.6H14.4a1.6 1.6 0 01-1.6-1.6v-3.2h22.4v3.2a1.6 1.6 0 01-1.6 1.6zm11.2-24.8v11.2a.8.8 0 01-.8.8h-8.8a.806.806 0 00-.444.134l-3.556 2.37V31.2a.8.8 0 00-.8-.8H28a.8.8 0 01-.8-.8V18.4a.8.8 0 01.8-.8h16a.8.8 0 01.8.8zM28 16a2.4 2.4 0 00-2.4 2.4v11.2A2.4 2.4 0 0028 32h1.6v2.4a.8.8 0 001.244.666L35.2 32.16v4.64H12.8v-8.64l4.356 2.904A.8.8 0 0018.4 30.4V28H20a2.4 2.4 0 002.4-2.4V16a2.4 2.4 0 00-2.4-2.4h-7.2v-2.4h22.4V16H28zm7.2-9.6v3.2H12.8V6.4a1.6 1.6 0 011.6-1.6h19.2a1.6 1.6 0 011.6 1.6z" fill="#000"/><path d="M8 42.4a5.606 5.606 0 005.6 5.6v-1.6a4.005 4.005 0 01-4-4V36H8v6.4zm1.6-9.6H8v1.6h1.6v-1.6zM40 5.6A5.606 5.606 0 0034.4 0H32v1.6h2.4a4.005 4.005 0 014 4v4H40v-4zm0 5.6h-1.6v1.6H40v-1.6zm-8 15.2h1.6V28a.8.8 0 00.8.8h3.2a.8.8 0 00.8-.8v-1.6H40a.8.8 0 00.8-.8v-3.2a.8.8 0 00-.8-.8h-1.6V20a.8.8 0 00-.8-.8h-3.2a.8.8 0 00-.8.8v1.6H32a.8.8 0 00-.8.8v3.2a.8.8 0 00.8.8zm.8-3.2h1.6a.8.8 0 00.8-.8v-1.6h1.6v1.6a.8.8 0 00.8.8h1.6v1.6h-1.6a.8.8 0 00-.8.8v1.6h-1.6v-1.6a.8.8 0 00-.8-.8h-1.6v-1.6z" fill="#000"/></g><defs><clipPath id="clip0_2_229"><path fill="#fff" d="M0 0h48v48H0z"/></clipPath></defs></svg>