<svg viewBox="0 0 48 48" fill="none" xmlns="http://www.w3.org/2000/svg" xmlns:anim="http://www.w3.org/2000/anim" anim:transform-origin="50% 50%" anim:duration=".5" anim:ease="power1.inOut"><g clip-path="url(#clip0_2_150)"><g clip-path="url(#clip1_2_150)"><g clip-path="url(#clip2_2_150)"><g clip-path="url(#clip3_2_150)"><g clip-path="url(#clip4_2_150)"><path d="M35.25 43.5v2.25c0 .413-.337.75-.75.75h-21a.752.752 0 01-.75-.75V43.5h22.5z" fill="#969FAA"/></g><g clip-path="url(#clip5_2_150)"><path d="M19.5 40.5v3h-6.75V42c0-.825.675-1.5 1.5-1.5h5.25z" fill="#969FAA"/></g><g clip-path="url(#clip6_2_150)"><path d="M35.25 42v1.5H28.5v-3h5.25c.825 0 1.5.675 1.5 1.5z" fill="#969FAA"/></g><g clip-path="url(#clip7_2_150)"><path d="M28.5 40.5v3h-9v-6h9v3z" fill="#AAB2BD"/></g><g clip-path="url(#clip8_2_150)"><path d="M45 31.5V36c0 .825-.675 1.5-1.5 1.5H3c-.825 0-1.5-.675-1.5-1.5v-4.5H45z" fill="#CCD1D9"/></g><g clip-path="url(#clip9_2_150)"><path d="M45 31.5H1.5V9A1.5 1.5 0 013 7.5h42v24z" fill="#69D6F4"/></g><g clip-path="url(#clip10_2_150)"><path d="M33 25.5h3v3h-3v-3z" fill="#FF826E"/></g><g clip-path="url(#clip11_2_150)"><path d="M39 19.5h3v3h-3v-3z" fill="#FF826E"/></g><g clip-path="url(#clip12_2_150)"><path d="M39 25.5h3v3h-3v-3z" fill="#B4DD7F"/></g><g clip-path="url(#clip13_2_150)"><path d="M33 19.5h3v3h-3v-3z" fill="#B4DD7F"/></g><g clip-path="url(#clip14_2_150)"><path d="M11.25 12c0 .375.037.742.113 1.095l-.023.007-.54-.322a5.249 5.249 0 01-2.55-4.5v-.03c0-.255.015-.503.045-.75A6.745 6.745 0 0115 1.5h9c.413 0 .788.165 1.058.442.277.27.442.645.442 1.058 0 1.14-.42 2.197-1.133 3.008a4.496 4.496 0 01-2.542 1.477l-.075.015h-2.625c-1.74 0-3.48-.218-5.175-.638a3.774 3.774 0 00-.915-.112 1.78 1.78 0 00-1.785 1.785V12z" fill="#B27946"/></g><g clip-path="url(#clip15_2_150)"><path d="M24.705 7.5c.03.248.045.495.045.75v.03a5.249 5.249 0 01-2.55 4.5l-.54.322c.06-.307.09-.622.09-.944V7.5l.075-.015a4.496 4.496 0 002.542-1.477c.165.48.285.975.338 1.492z" fill="#B27946"/></g><g clip-path="url(#clip16_2_150)"><path d="M22.86 19.313l-.36-.06-3-.503-3 4.5-3-4.5-3 .503-.36.06a6.741 6.741 0 00-5.64 6.652V31.5h24v-5.535a6.74 6.74 0 00-5.64-6.652z" fill="#E6E9ED"/></g><g clip-path="url(#clip17_2_150)"><path d="M22.5 28.5a1.5 1.5 0 100-3 1.5 1.5 0 000 3z" fill="#FCD770"/></g><g clip-path="url(#clip18_2_150)"><path d="M14.033 16.635c.742.39 1.59.615 2.49.615h.134c.833 0 1.628-.203 2.326-.563l.517 2.063-3 4.5-3-4.5.533-2.115z" fill="#F0D0B4"/></g><g clip-path="url(#clip19_2_150)"><path d="M14.033 16.635a5.26 5.26 0 01-2.67-3.54A5.266 5.266 0 0111.25 12V8.535c0-.99.795-1.785 1.785-1.785.307 0 .615.037.915.112 1.695.42 3.435.638 5.175.638h2.625v4.658a5.09 5.09 0 01-5.093 5.092h-.134c-.9 0-1.748-.225-2.49-.615z" fill="#F0D0B4"/></g><g clip-path="url(#clip20_2_150)"><path d="M46.5 3v12c0 .825-.675 1.5-1.5 1.5H32.25l-1.95 2.602a1.002 1.002 0 01-1.8-.6V3c0-.825.675-1.5 1.5-1.5h15c.825 0 1.5.675 1.5 1.5z" fill="#E6E9ED"/></g><g clip-path="url(#clip21_2_150)"><path d="M42 8.25v1.5c0 .412-.337.75-.75.75H39v2.25c0 .412-.337.75-.75.75h-1.5a.752.752 0 01-.75-.75V10.5h-2.25a.752.752 0 01-.75-.75v-1.5c0-.412.337-.75.75-.75H36V5.25c0-.412.337-.75.75-.75h1.5c.413 0 .75.338.75.75V7.5h2.25c.413 0 .75.338.75.75z" fill="#FCD770"/></g></g><g clip-path="url(#clip22_2_150)" fill="#000"><path d="M14.25 11.25a.75.75 0 100-1.5.75.75 0 000 1.5zm4.5 0a.75.75 0 100-1.5.75.75 0 000 1.5zM18 12.573c-.286.572-.86.927-1.5.927s-1.214-.355-1.5-.927l-.079-.158-1.341.671.078.158A3.16 3.16 0 0016.5 15a3.16 3.16 0 002.842-1.757l.079-.158-1.342-.671-.079.159zM41.25 6.75h-1.5v-1.5c0-.827-.673-1.5-1.5-1.5h-1.5c-.827 0-1.5.673-1.5 1.5v1.5h-1.5c-.827 0-1.5.673-1.5 1.5v1.5c0 .827.673 1.5 1.5 1.5h1.5v1.5c0 .827.673 1.5 1.5 1.5h1.5c.827 0 1.5-.673 1.5-1.5v-1.5h1.5c.827 0 1.5-.673 1.5-1.5v-1.5c0-.827-.673-1.5-1.5-1.5zm0 3h-3v3h-1.5v-3h-3v-1.5h3v-3h1.5v3l3 .002V9.75z"/><path d="M45 .75H30c-1.24 0-2.25 1.01-2.25 2.25v3.75h-2.407a7.354 7.354 0 00-.142-.583A5.312 5.312 0 0026.25 3c0-1.24-1.01-2.25-2.25-2.25h-9c-3.616 0-6.641 2.572-7.346 6H3C1.76 6.75.75 7.76.75 9v27c0 1.24 1.01 2.25 2.25 2.25h15.75v1.5h-4.5C13.01 39.75 12 40.76 12 42v3.75c0 .827.673 1.5 1.5 1.5h21c.827 0 1.5-.673 1.5-1.5V42c0-1.24-1.01-2.25-2.25-2.25h-4.5v-1.5H43.5c1.24 0 2.25-1.01 2.25-2.25V17.112c.87-.31 1.5-1.135 1.5-2.112V3c0-1.24-1.01-2.25-2.25-2.25zm-17.25 7.5V18.5c0 .965.785 1.75 1.75 1.75.547 0 1.07-.262 1.4-.7l1.725-2.3H44.25v13.5h-15v-4.782a7.476 7.476 0 00-6.267-7.398l-2.875-.48-.26-1.044a5.855 5.855 0 002.468-3.462l.271-.162A6.04 6.04 0 0025.5 8.25h2.25zm-18 15.826c-1.71.348-3 1.863-3 3.674v1.5h1.5v-1.5c0-1.24 1.01-2.25 2.25-2.25s2.25 1.01 2.25 2.25v1.5h1.5v-1.5c0-1.81-1.29-3.326-3-3.674v-4.19l1.895-.316 2.605 3.907v7.273H5.25v-4.782a5.978 5.978 0 014.5-5.809v3.917zm6.907-7.576h-.131C14.03 16.5 12 14.482 12 12V8.534c0-.57.463-1.034 1.034-1.034.248 0 .495.03.736.09 1.75.438 3.553.66 5.356.66H21v3.908a4.347 4.347 0 01-4.343 4.342zm-.131 1.5h.131a5.8 5.8 0 001.81-.29l.225.9-2.192 3.288-2.192-3.288.236-.944a6.021 6.021 0 001.982.334zm.724 5.477l2.605-3.907 1.895.316v5.003c-.87.31-1.5 1.135-1.5 2.112 0 1.24 1.01 2.25 2.25 2.25s2.25-1.01 2.25-2.25c0-.977-.63-1.802-1.5-2.112v-4.73a5.978 5.978 0 014.5 5.809v4.782h-10.5v-7.273zm6 3.523c0 .413-.337.75-.75.75a.751.751 0 01-.75-.75c0-.413.337-.75.75-.75s.75.337.75.75zm.683-19.617c.041.292.067.589.067.895a4.52 4.52 0 01-1.5 3.34V8.086a5.296 5.296 0 001.433-.703zM15 2.25h9c.413 0 .75.337.75.75a3.835 3.835 0 01-3.074 3.75h-2.55c-1.682 0-3.361-.207-4.992-.614a4.54 4.54 0 00-1.1-.136A2.537 2.537 0 0010.5 8.534v3.095A4.551 4.551 0 019 8.25a6.007 6.007 0 016-5.999zm-12 6h4.502l-.002.028a6.03 6.03 0 002.913 5.145l.307.184a6.02 6.02 0 002.45 3.372l-.277 1.113-2.875.479a7.475 7.475 0 00-6.268 7.397v4.782h-1.5V9c0-.413.337-.75.75-.75zm11.25 33h4.5v1.5H13.5V42c0-.413.337-.75.75-.75zm-.75 4.5v-1.5h21v1.5h-21zm20.25-4.5c.413 0 .75.337.75.75v.75h-5.25v-1.5h4.5zm-6 1.5h-7.5v-4.5h7.5v4.5zm15.75-6H3a.751.751 0 01-.75-.75v-3.75h42V36c0 .413-.337.75-.75.75zM45.75 15c0 .413-.337.75-.75.75H31.875l-2.175 2.9c-.129.173-.45.066-.45-.15V3c0-.413.337-.75.75-.75h15c.413 0 .75.337.75.75v12z"/><path d="M42.75 18.75h-4.5v4.5h4.5v-4.5zm-1.5 3h-1.5v-1.5h1.5v1.5zm1.5 3h-4.5v4.5h4.5v-4.5zm-1.5 3h-1.5v-1.5h1.5v1.5zm-4.5-9h-4.5v4.5h4.5v-4.5zm-1.5 3h-1.5v-1.5h1.5v1.5zm1.5 3h-4.5v4.5h4.5v-4.5zm-1.5 3h-1.5v-1.5h1.5v1.5zm-15 6h4.5v1.5h-4.5v-1.5zm6 0h1.5v1.5h-1.5v-1.5z"/></g></g></g></g><defs><clipPath id="clip0_2_150"><path fill="#fff" d="M0 0h48v48H0z"/></clipPath><clipPath id="clip1_2_150"><path fill="#fff" d="M0 0h48v48H0z"/></clipPath><clipPath id="clip2_2_150"><path fill="#fff" transform="translate(.75 .75)" d="M0 0h46.5v46.5H0z"/></clipPath><clipPath id="clip3_2_150"><path fill="#fff" transform="translate(1.5 1.5)" d="M0 0h45v45H0z"/></clipPath><clipPath id="clip4_2_150"><path fill="#fff" transform="translate(12.75 43.5)" d="M0 0h22.5v3H0z"/></clipPath><clipPath id="clip5_2_150"><path fill="#fff" transform="translate(12.75 40.5)" d="M0 0h6.75v3H0z"/></clipPath><clipPath id="clip6_2_150"><path fill="#fff" transform="translate(28.5 40.5)" d="M0 0h6.75v3H0z"/></clipPath><clipPath id="clip7_2_150"><path fill="#fff" transform="translate(19.5 37.5)" d="M0 0h9v6H0z"/></clipPath><clipPath id="clip8_2_150"><path fill="#fff" transform="translate(1.5 31.5)" d="M0 0h43.5v6H0z"/></clipPath><clipPath id="clip9_2_150"><path fill="#fff" transform="translate(1.5 7.5)" d="M0 0h43.5v24H0z"/></clipPath><clipPath id="clip10_2_150"><path fill="#fff" transform="translate(33 25.5)" d="M0 0h3v3H0z"/></clipPath><clipPath id="clip11_2_150"><path fill="#fff" transform="translate(39 19.5)" d="M0 0h3v3H0z"/></clipPath><clipPath id="clip12_2_150"><path fill="#fff" transform="translate(39 25.5)" d="M0 0h3v3H0z"/></clipPath><clipPath id="clip13_2_150"><path fill="#fff" transform="translate(33 19.5)" d="M0 0h3v3H0z"/></clipPath><clipPath id="clip14_2_150"><path fill="#fff" transform="translate(8.25 1.5)" d="M0 0h17.25v11.602H0z"/></clipPath><clipPath id="clip15_2_150"><path fill="#fff" transform="translate(21.66 6.008)" d="M0 0h3.09v7.095H0z"/></clipPath><clipPath id="clip16_2_150"><path fill="#fff" transform="translate(4.5 18.75)" d="M0 0h24v12.75H0z"/></clipPath><clipPath id="clip17_2_150"><path fill="#fff" transform="translate(21 25.5)" d="M0 0h3v3H0z"/></clipPath><clipPath id="clip18_2_150"><path fill="#fff" transform="translate(13.5 16.635)" d="M0 0h6v6.615H0z"/></clipPath><clipPath id="clip19_2_150"><path fill="#fff" transform="translate(11.25 6.75)" d="M0 0h10.5v10.5H0z"/></clipPath><clipPath id="clip20_2_150"><path fill="#fff" transform="translate(28.5 1.5)" d="M0 0h18v18H0z"/></clipPath><clipPath id="clip21_2_150"><path fill="#fff" transform="translate(33 4.5)" d="M0 0h9v9H0z"/></clipPath><clipPath id="clip22_2_150"><path fill="#fff" transform="translate(.75 .75)" d="M0 0h46.5v46.5H0z"/></clipPath></defs></svg>