<svg viewBox="0 0 146 59" fill="none" xmlns="http://www.w3.org/2000/svg" xmlns:anim="http://www.w3.org/2000/anim" anim:transform-origin="50% 50%" anim:duration=".5" anim:ease="power1.inOut"><g clip-path="url(#clip0_2_556)"><path d="M31.5.995h12.612V35.01c0 5.395 2.432 8.605 4.41 9.942-2.06 1.809-8.3 3.406-13.002-.456-2.756-2.282-4.02-6.08-4.02-9.617V.995zm78.769 28.278v-3.586h3.858V13.17h-4.231c-1.637-7.546-8.3-13.153-16.26-13.153-9.175 0-16.648 7.498-16.648 16.739v29.206c2.594.375 5.739-.049 8.38-2.281 2.773-2.282 4.021-6.063 4.021-9.616v-1.092h6.29V20.456h-6.29v-3.798c0-5.64 8.462-5.64 8.462 0v12.566c0 9.225 7.457 16.738 16.649 16.738V33.494a4.228 4.228 0 01-4.231-4.221zM62.56 13.137v18.418c0 2.51-3.858 2.51-3.858 0V13.137h-12.45v21.628c0 3.88 1.297 8.801 7.295 10.415 5.998 1.597 9.435-1.728 9.435-1.728-.34 2.184-2.35 3.798-5.658 4.124-2.513.26-5.706-.587-7.295-1.271v11.457c4.069 1.223 8.349 1.598 12.58.766 7.635-1.483 12.45-7.888 12.45-16.428V13.056H62.56v.082z" fill="#737373"/></g><defs><clipPath id="clip0_2_556"><path fill="#fff" transform="translate(31.5)" d="M0 0h83v59H0z"/></clipPath></defs></svg>